<svg width="72" height="32" viewBox="0 0 72 32" fill="none" xmlns="http://www.w3.org/2000/svg">
<g clip-path="url(#clip0_1_142)">
<rect width="72" height="32" rx="15" fill="white"/>
<g opacity="0.7">
<path d="M50.3721 8.74693C50.1319 9.4536 50 10.2106 50 10.9999C50 14.8659 53.134 17.9999 57 17.9999C57.7882 17.9999 58.5453 17.8672 59.2529 17.6268L60.5215 18.8954C59.3161 22.443 55.9591 24.9999 52 24.9999C47.0294 24.9999 43 20.9704 43 15.9999C43 12.0413 45.556 8.68302 49.1035 7.4774L50.3721 8.74693ZM48.0322 10.2333C46.2001 11.4959 45 13.6083 45 15.9999C45 19.8659 48.134 22.9999 52 22.9999C54.3916 22.9999 56.5032 21.7993 57.7656 19.9667C57.5133 19.9882 57.2579 19.9999 57 19.9999C52.0294 19.9999 48 15.9704 48 10.9999C48 10.7417 48.0108 10.486 48.0322 10.2333Z" fill="#4B5EFC"/>
</g>
<circle cx="16" cy="16" r="12" fill="#4E505F"/>
</g>
<defs>
<clipPath id="clip0_1_142">
<rect width="72" height="32" rx="15" fill="white"/>
</clipPath>
</defs>
</svg>
